{
  "accessors": [
    {
      "bufferView": 1,
      "componentType": 5126,
      "count": 1262,
      "max": [
        0.5280100107192993,
        3.8166399002075195,
        0.5590199828147888
      ],
      "min": [
        -0.5900300145149231,
        0.01664000004529953,
        -0.5590199828147888
      ],
      "type": "VEC3"
    },
    {
      "bufferView": 1,
      "byteOffset": 15144,
      "componentType": 5126,
      "count": 1262,
      "max": [
        0.9999929070472717,
        1.0,
        0.9999929070472717
      ],
      "min": [
        -0.9999929070472717,
        -1.0,
        -0.9999929070472717
      ],
      "type": "VEC3"
    },
    {
      "bufferView": 0,
      "componentType": 5125,
      "count": 7128,
      "type": "SCALAR"
    },
    {
      "bufferView": 1,
      "byteOffset": 30288,
      "componentType": 5126,
      "count": 144,
      "max": [
        0.23632000386714935,
        2.6479299068450928,
        0.26732999086380005
      ],
      "min": [
        -0.29833999276161194,
        2.266969919204712,
        -0.26732999086380005
      ],
      "type": "VEC3"
    },
    {
      "bufferView": 1,
      "byteOffset": 32016,
      "componentType": 5126,
      "count": 144,
      "max": [
        0.9994019269943237,
        0.3619268536567688,
        0.9994019269943237
      ],
      "min": [
        -0.9994019269943237,
        -0.07947206497192383,
        -0.9994019269943237
      ],
      "type": "VEC3"
    },
    {
      "bufferView": 0,
      "byteOffset": 28512,
      "componentType": 5125,
      "count": 432,
      "type": "SCALAR"
    }
  ],
  "asset": {
    "extras": {
      "author": "Julievr (https://sketchfab.com/Julievr)",
      "license": "CC-BY-4.0 (http://creativecommons.org/licenses/by/4.0/)",
      "source": "https://sketchfab.com/3d-models/bowling-pin-complete-with-stripes1-c7ee71fb1a7644d59938d09860f5471d",
      "title": "Bowling Pin Complete With Stripes1"
    },
    "generator": "Sketchfab-12.66.0",
    "version": "2.0"
  },
  "bufferViews": [
    {
      "buffer": 0,
      "byteLength": 30240,
      "name": "floatBufferViews",
      "target": 34963
    },
    {
      "buffer": 0,
      "byteLength": 33744,
      "byteOffset": 30240,
      "byteStride": 12,
      "name": "floatBufferViews",
      "target": 34962
    }
  ],
  "buffers": [
    {
      "byteLength": 63984,
      "uri": "scene.bin"
    }
  ],
  "materials": [
    {
      "doubleSided": true,
      "name": "material",
      "pbrMetallicRoughness": {
        "baseColorFactor": [
          0.6400000190734865,
          0.6400000190734865,
          0.6400000190734865,
          1.0
        ],
        "metallicFactor": 0.0,
        "roughnessFactor": 0.6
      }
    },
    {
      "doubleSided": true,
      "name": "Stripe",
      "pbrMetallicRoughness": {
        "baseColorFactor": [
          0.2248069558263861,
          0.0,
          0.0021586716496746483,
          1.0
        ],
        "metallicFactor": 0.0,
        "roughnessFactor": 0.6
      }
    }
  ],
  "meshes": [
    {
      "name": "Pin _0",
      "primitives": [
        {
          "attributes": {
            "NORMAL": 1,
            "POSITION": 0
          },
          "indices": 2,
          "material": 0,
          "mode": 4
        }
      ]
    },
    {
      "name": "Pin _1",
      "primitives": [
        {
          "attributes": {
            "NORMAL": 4,
            "POSITION": 3
          },
          "indices": 5,
          "material": 1,
          "mode": 4
        }
      ]
    }
  ],
  "nodes": [
    {
      "children": [
        1
      ],
      "matrix": [
        0.21913059055805206,
        0.0,
        0.0,
        0.0,
        0.0,
        4.8656765407451466e-17,
        -0.21913059055805206,
        0.0,
        0.0,
        0.21913059055805206,
        4.8656765407451466e-17,
        0.0,
        0.0,
        0.0,
        0.0,
        1.0
      ],
      "name": "Sketchfab_model"
    },
    {
      "children": [
        2,
        4
      ],
      "name": "Root"
    },
    {
      "children": [
        3
      ],
      "matrix": [
        -0.29086000000000006,
        0.9551700000000001,
        -0.05519000000000001,
        0.0,
        -0.7711,
        -0.19988000000000003,
        0.6045200000000001,
        0.0,
        0.5663900000000001,
        0.21839000000000003,
        0.7946700000000001,
        0.0,
        4.076250000000001,
        1.00545,
        5.903860000000001,
        1.0
      ],
      "name": "Lamp"
    },
    {
      "name": "Lamp"
    },
    {
      "children": [
        5,
        6
      ],
      "matrix": [
        1.0,
        0.0,
        0.0,
        0.0,
        0.0,
        -0.0,
        1.0,
        0.0,
        0.0,
        -1.0,
        -0.0,
        0.0,
        0.0,
        -0.0,
        0.0,
        1.0
      ],
      "name": "Pin "
    },
    {
      "mesh": 0,
      "name": "Pin _0"
    },
    {
      "mesh": 1,
      "name": "Pin _1"
    }
  ],
  "scene": 0,
  "scenes": [
    {
      "name": "Sketchfab_Scene",
      "nodes": [
        0
      ]
    }
  ]
}
